<svg xmlns="http://www.w3.org/2000/svg" viewBox="0 0 1200 630">
  <rect width="1200" height="630" fill="#f7f4ea"/>

  <!-- Subtle grid -->
  <g opacity="0.06" stroke="#0a0a0a" stroke-width="1">
    <path d="M 0 0 H 1200 M 0 32 H 1200 M 0 64 H 1200 M 0 96 H 1200 M 0 128 H 1200 M 0 160 H 1200 M 0 192 H 1200 M 0 224 H 1200 M 0 256 H 1200 M 0 288 H 1200 M 0 320 H 1200 M 0 352 H 1200 M 0 384 H 1200 M 0 416 H 1200 M 0 448 H 1200 M 0 480 H 1200 M 0 512 H 1200 M 0 544 H 1200 M 0 576 H 1200 M 0 608 H 1200"/>
    <path d="M 0 0 V 630 M 32 0 V 630 M 64 0 V 630 M 96 0 V 630 M 128 0 V 630 M 160 0 V 630 M 192 0 V 630 M 224 0 V 630 M 256 0 V 630 M 288 0 V 630 M 320 0 V 630 M 352 0 V 630 M 384 0 V 630 M 416 0 V 630 M 448 0 V 630 M 480 0 V 630 M 512 0 V 630 M 544 0 V 630 M 576 0 V 630 M 608 0 V 630 M 640 0 V 630 M 672 0 V 630 M 704 0 V 630 M 736 0 V 630 M 768 0 V 630 M 800 0 V 630 M 832 0 V 630 M 864 0 V 630 M 896 0 V 630 M 928 0 V 630 M 960 0 V 630 M 992 0 V 630 M 1024 0 V 630 M 1056 0 V 630 M 1088 0 V 630 M 1120 0 V 630 M 1152 0 V 630 M 1184 0 V 630"/>
  </g>

  <!-- Logo -->
  <g transform="translate(80, 80)">
    <circle cx="48" cy="48" r="44" fill="#0a8244"/>
    <path d="M 6 48 Q 48 18 90 48 Q 48 78 6 48 Z" fill="#f7f4ea"/>
    <rect x="40" y="40" width="16" height="16" fill="#0a8244"/>
  </g>

  <!-- Eyebrow -->
  <text x="80" y="270" font-family="ui-sans-serif, system-ui, -apple-system, Inter" font-weight="600" font-size="22" fill="#6f6a5d" letter-spacing="4">
    THE READ · MANTLE ANOMALY NARRATOR
  </text>

  <!-- Headline -->
  <text x="80" y="380" font-family="ui-sans-serif, system-ui, -apple-system, Inter" font-weight="700" font-size="96" fill="#0a0a0a" letter-spacing="-3">
    Every Mantle move,
  </text>
  <text x="80" y="488" font-family="ui-sans-serif, system-ui, -apple-system, Inter" font-weight="700" font-size="96" fill="#0a8244" letter-spacing="-3">
    in one sentence.
  </text>

  <!-- Bottom strip -->
  <rect x="0" y="580" width="1200" height="50" fill="#0a0a0a"/>
  <text x="80" y="612" font-family="ui-sans-serif, system-ui, Inter" font-weight="500" font-size="18" fill="#f7f4ea" letter-spacing="2">
    NARRATED BY Z.AI GLM-4.7 · ATTESTED VIA ERC-8004 · LIVE ON MANTLE
  </text>
</svg>
